<svg xmlns="http://www.w3.org/2000/svg" version="1.1" xmlns:xlink="http://www.w3.org/1999/xlink" xmlns:svgjs="http://svgjs.dev/svgjs" width="768.666px" height="768.588px"><svg version="1.1" id="SvgjsSvg1047" xmlns="http://www.w3.org/2000/svg" xmlns:xlink="http://www.w3.org/1999/xlink" x="0px" y="0px" width="768.666px" height="768.588px" viewBox="0 0 768.666 768.588" enable-background="new 0 0 768.666 768.588" xml:space="preserve">
<g id="SvgjsG1046">
	<circle fill="#FFFFFF" cx="384.333" cy="384.333" r="94.086"></circle>
	<circle fill="#FFFFFF" cx="86" cy="614" r="42"></circle>
	<circle fill="#FFFFFF" cx="444.666" cy="594.667" r="60"></circle>
	<circle fill="#FFFFFF" cx="682.667" cy="153.333" r="40"></circle>
	<circle fill="#FFFFFF" cx="447.862" cy="183.768" r="42.805"></circle>
</g>
<g id="SvgjsG1045">
	<circle fill="none" stroke="#FFFFFF" stroke-width="24" stroke-miterlimit="10" cx="384.333" cy="384.333" r="210.334"></circle>
	<g>
		<path fill="#FFFFFF" d="M384.333,24.84c48.542,0,95.619,9.501,139.924,28.241c42.806,18.105,81.253,44.029,114.276,77.053
			c33.022,33.023,58.947,71.471,77.053,114.277c18.738,44.304,28.24,91.381,28.24,139.923s-9.502,95.619-28.24,139.924
			c-18.104,42.806-44.029,81.253-77.053,114.276c-33.024,33.022-71.473,58.947-114.276,77.053
			c-44.305,18.738-91.382,28.24-139.924,28.24s-95.619-9.502-139.923-28.24c-42.806-18.104-81.254-44.029-114.277-77.053
			C97.11,605.51,71.186,567.062,53.081,524.257c-18.74-44.305-28.241-91.382-28.241-139.924s9.501-95.619,28.241-139.923
			c18.105-42.806,44.029-81.253,77.053-114.277c33.024-33.024,71.471-58.948,114.277-77.053
			C288.714,34.341,335.791,24.84,384.333,24.84 M384.333,0C172.072,0,0,172.072,0,384.333
			c0,212.262,172.072,384.333,384.333,384.333c212.262,0,384.333-172.071,384.333-384.333C768.666,172.072,596.595,0,384.333,0
			L384.333,0z"></path>
	</g>
</g>
</svg><style>@media (prefers-color-scheme: light) { :root { filter: contrast(1) brightness(0.1); } }
@media (prefers-color-scheme: dark) { :root { filter: contrast(1) brightness(1); } }
</style></svg>