<?xml version="1.0" encoding="UTF-8" standalone="no"?>
<svg version="1.1" id="Layer_1" x="0px" y="0px" width="924" height="924" viewBox="0 0 924 924" enable-background="new 0 0 924 924" xml:space="preserve" xmlns="http://www.w3.org/2000/svg" xmlns:svg="http://www.w3.org/2000/svg"><defs id="defs3" />
	<g id="g1">
		<path d="M 458.18182,917.9913 8.1454545,468.46402 46.836364,883.88221 Z" id="path7" />
		<path d="M 458.84246,917.9913 908.87883,468.46402 870.18792,883.88221 Z" id="path8" />
		<path d="M 458.18182,12.727273 8.1454545,462.25455 46.836364,46.836364 Z" id="path9" />
		<path d="M 458.84246,12.727273 908.87883,462.25455 870.18792,46.836364 Z" id="path10" />
	</g>
	<g id="g3"><path d="M 462,29.698 894.302,462 462,894.302 29.698,462 462,29.698 M 462,0 0,462 462,924 924,462 Z" id="path2" style="display:inline" /><path d="M 462,21.083 866.97,57.031 902.918,462 866.97,866.97 462,902.918 57.031,866.97 21.083,462 57.031,57.031 462,21.083 M 462,0 37.667,37.667 0,462 37.667,886.333 462,924 886.333,886.333 924,462 886.333,37.667 Z" id="path1" /><rect x="327" y="433" width="270" height="58" id="rect1" /></g>
</svg>
